<mxfile host="app.diagrams.net" modified="2023-02-26T12:59:39.926Z" agent="5.0 (Windows NT 10.0; Win64; x64) AppleWebKit/537.36 (KHTML, like Gecko) Chrome/110.0.0.0 Safari/537.36" etag="gcGNWKh1DWtDkBhCS1iD" version="20.8.23" type="github" pages="2">
  <diagram name="Page-1" id="2YBvvXClWsGukQMizWep">
    <mxGraphModel dx="794" dy="430" grid="1" gridSize="10" guides="1" tooltips="1" connect="1" arrows="1" fold="1" page="1" pageScale="1" pageWidth="850" pageHeight="1100" math="0" shadow="0">
      <root>
        <mxCell id="0" />
        <mxCell id="1" parent="0" />
        <mxCell id="AmKqe1cutPp_cTyb461F-1" value="" style="strokeWidth=2;html=1;shape=mxgraph.flowchart.start_1;whiteSpace=wrap;" vertex="1" parent="1">
          <mxGeometry x="290" y="40" width="100" height="60" as="geometry" />
        </mxCell>
        <mxCell id="AmKqe1cutPp_cTyb461F-2" value="" style="strokeWidth=2;html=1;shape=mxgraph.flowchart.start_1;whiteSpace=wrap;" vertex="1" parent="1">
          <mxGeometry x="290" y="120" width="100" height="60" as="geometry" />
        </mxCell>
        <mxCell id="AmKqe1cutPp_cTyb461F-3" value="" style="strokeWidth=2;html=1;shape=mxgraph.flowchart.start_1;whiteSpace=wrap;" vertex="1" parent="1">
          <mxGeometry x="290" y="200" width="100" height="60" as="geometry" />
        </mxCell>
        <mxCell id="AmKqe1cutPp_cTyb461F-4" value="Fuvarszervező&lt;br&gt;" style="shape=umlActor;verticalLabelPosition=bottom;verticalAlign=top;html=1;outlineConnect=0;" vertex="1" parent="1">
          <mxGeometry x="50" y="50" width="50" height="90" as="geometry" />
        </mxCell>
        <mxCell id="AmKqe1cutPp_cTyb461F-8" value="Pénzügy" style="shape=umlActor;verticalLabelPosition=bottom;verticalAlign=top;html=1;outlineConnect=0;" vertex="1" parent="1">
          <mxGeometry x="50" y="230" width="50" height="90" as="geometry" />
        </mxCell>
      </root>
    </mxGraphModel>
  </diagram>
  <diagram id="y6l5w91rTqcz5tSXp_qV" name="Adatbázis kapcsolat">
    <mxGraphModel dx="1434" dy="790" grid="1" gridSize="10" guides="1" tooltips="1" connect="1" arrows="1" fold="1" page="1" pageScale="1" pageWidth="827" pageHeight="1169" math="0" shadow="0">
      <root>
        <mxCell id="0" />
        <mxCell id="1" parent="0" />
        <mxCell id="q50GJkv8PMloG3w-waEr-1" value="Felhasználók" style="whiteSpace=wrap;html=1;align=center;" vertex="1" parent="1">
          <mxGeometry x="690" y="180" width="90" height="30" as="geometry" />
        </mxCell>
        <mxCell id="q50GJkv8PMloG3w-waEr-2" value="Gépkocsik" style="whiteSpace=wrap;html=1;align=center;" vertex="1" parent="1">
          <mxGeometry x="800" y="540" width="100" height="40" as="geometry" />
        </mxCell>
        <mxCell id="q50GJkv8PMloG3w-waEr-3" value="Fuvarok" style="whiteSpace=wrap;html=1;align=center;" vertex="1" parent="1">
          <mxGeometry x="360" y="320" width="100" height="40" as="geometry" />
        </mxCell>
        <mxCell id="q50GJkv8PMloG3w-waEr-4" value="Partnerek" style="whiteSpace=wrap;html=1;align=center;" vertex="1" parent="1">
          <mxGeometry x="360" y="680" width="100" height="40" as="geometry" />
        </mxCell>
        <mxCell id="q50GJkv8PMloG3w-waEr-5" value="Pénzügyek" style="whiteSpace=wrap;html=1;align=center;" vertex="1" parent="1">
          <mxGeometry x="40" y="440" width="100" height="40" as="geometry" />
        </mxCell>
        <mxCell id="q50GJkv8PMloG3w-waEr-9" value="" style="rounded=0;orthogonalLoop=1;jettySize=auto;html=1;" edge="1" parent="1" source="q50GJkv8PMloG3w-waEr-6" target="q50GJkv8PMloG3w-waEr-1">
          <mxGeometry relative="1" as="geometry" />
        </mxCell>
        <mxCell id="q50GJkv8PMloG3w-waEr-6" value="Név" style="ellipse;whiteSpace=wrap;html=1;align=center;" vertex="1" parent="1">
          <mxGeometry x="880" y="50" width="100" height="40" as="geometry" />
        </mxCell>
        <mxCell id="q50GJkv8PMloG3w-waEr-10" value="" style="rounded=0;orthogonalLoop=1;jettySize=auto;html=1;strokeColor=default;" edge="1" parent="1" source="q50GJkv8PMloG3w-waEr-7" target="q50GJkv8PMloG3w-waEr-1">
          <mxGeometry relative="1" as="geometry" />
        </mxCell>
        <mxCell id="q50GJkv8PMloG3w-waEr-7" value="Cím1" style="ellipse;whiteSpace=wrap;html=1;align=center;" vertex="1" parent="1">
          <mxGeometry x="880" y="90" width="100" height="40" as="geometry" />
        </mxCell>
        <mxCell id="q50GJkv8PMloG3w-waEr-32" style="edgeStyle=none;rounded=0;orthogonalLoop=1;jettySize=auto;html=1;entryX=1.01;entryY=0.325;entryDx=0;entryDy=0;entryPerimeter=0;strokeColor=default;" edge="1" parent="1" source="q50GJkv8PMloG3w-waEr-15" target="q50GJkv8PMloG3w-waEr-6">
          <mxGeometry relative="1" as="geometry" />
        </mxCell>
        <mxCell id="q50GJkv8PMloG3w-waEr-15" value="Keresztnév" style="ellipse;whiteSpace=wrap;html=1;align=center;" vertex="1" parent="1">
          <mxGeometry x="1030" y="50" width="100" height="40" as="geometry" />
        </mxCell>
        <mxCell id="q50GJkv8PMloG3w-waEr-33" style="edgeStyle=none;rounded=0;orthogonalLoop=1;jettySize=auto;html=1;entryX=0.99;entryY=0.8;entryDx=0;entryDy=0;entryPerimeter=0;strokeColor=default;" edge="1" parent="1" source="q50GJkv8PMloG3w-waEr-17" target="q50GJkv8PMloG3w-waEr-6">
          <mxGeometry relative="1" as="geometry" />
        </mxCell>
        <mxCell id="q50GJkv8PMloG3w-waEr-17" value="Vezetéknév" style="ellipse;whiteSpace=wrap;html=1;align=center;" vertex="1" parent="1">
          <mxGeometry x="1030" y="90" width="100" height="40" as="geometry" />
        </mxCell>
        <mxCell id="q50GJkv8PMloG3w-waEr-25" style="edgeStyle=none;rounded=0;orthogonalLoop=1;jettySize=auto;html=1;entryX=1;entryY=0.75;entryDx=0;entryDy=0;strokeColor=default;" edge="1" parent="1" source="q50GJkv8PMloG3w-waEr-18" target="q50GJkv8PMloG3w-waEr-1">
          <mxGeometry relative="1" as="geometry" />
        </mxCell>
        <mxCell id="q50GJkv8PMloG3w-waEr-18" value="adószám" style="ellipse;whiteSpace=wrap;html=1;align=center;" vertex="1" parent="1">
          <mxGeometry x="880" y="215" width="100" height="40" as="geometry" />
        </mxCell>
        <mxCell id="q50GJkv8PMloG3w-waEr-23" style="edgeStyle=none;rounded=0;orthogonalLoop=1;jettySize=auto;html=1;entryX=1;entryY=0.25;entryDx=0;entryDy=0;strokeColor=default;" edge="1" parent="1" source="q50GJkv8PMloG3w-waEr-19" target="q50GJkv8PMloG3w-waEr-1">
          <mxGeometry relative="1" as="geometry" />
        </mxCell>
        <mxCell id="q50GJkv8PMloG3w-waEr-19" value="Cím2" style="ellipse;whiteSpace=wrap;html=1;align=center;" vertex="1" parent="1">
          <mxGeometry x="880" y="130" width="100" height="40" as="geometry" />
        </mxCell>
        <mxCell id="q50GJkv8PMloG3w-waEr-26" style="edgeStyle=none;rounded=0;orthogonalLoop=1;jettySize=auto;html=1;entryX=1;entryY=0.75;entryDx=0;entryDy=0;strokeColor=default;" edge="1" parent="1" source="q50GJkv8PMloG3w-waEr-20" target="q50GJkv8PMloG3w-waEr-1">
          <mxGeometry relative="1" as="geometry" />
        </mxCell>
        <mxCell id="q50GJkv8PMloG3w-waEr-20" value="felhasználónév" style="ellipse;whiteSpace=wrap;html=1;align=center;" vertex="1" parent="1">
          <mxGeometry x="880" y="255" width="100" height="40" as="geometry" />
        </mxCell>
        <mxCell id="q50GJkv8PMloG3w-waEr-27" style="edgeStyle=none;rounded=0;orthogonalLoop=1;jettySize=auto;html=1;entryX=0.933;entryY=1;entryDx=0;entryDy=0;entryPerimeter=0;strokeColor=default;" edge="1" parent="1" source="q50GJkv8PMloG3w-waEr-21" target="q50GJkv8PMloG3w-waEr-1">
          <mxGeometry relative="1" as="geometry" />
        </mxCell>
        <mxCell id="q50GJkv8PMloG3w-waEr-21" value="jelszó" style="ellipse;whiteSpace=wrap;html=1;align=center;" vertex="1" parent="1">
          <mxGeometry x="880" y="295" width="100" height="40" as="geometry" />
        </mxCell>
        <mxCell id="q50GJkv8PMloG3w-waEr-24" style="edgeStyle=none;rounded=0;orthogonalLoop=1;jettySize=auto;html=1;strokeColor=default;entryX=1;entryY=0.5;entryDx=0;entryDy=0;" edge="1" parent="1" source="q50GJkv8PMloG3w-waEr-22" target="q50GJkv8PMloG3w-waEr-1">
          <mxGeometry relative="1" as="geometry">
            <mxPoint x="790" y="195" as="targetPoint" />
          </mxGeometry>
        </mxCell>
        <mxCell id="q50GJkv8PMloG3w-waEr-22" value="&lt;b&gt;&lt;u&gt;FelhasználóID&lt;/u&gt;&lt;/b&gt;" style="ellipse;whiteSpace=wrap;html=1;align=center;" vertex="1" parent="1">
          <mxGeometry x="880" y="175" width="100" height="40" as="geometry" />
        </mxCell>
        <mxCell id="q50GJkv8PMloG3w-waEr-29" value="Relationship" style="shape=rhombus;double=1;perimeter=rhombusPerimeter;whiteSpace=wrap;html=1;align=center;" vertex="1" parent="1">
          <mxGeometry x="160" y="100" width="100" height="60" as="geometry" />
        </mxCell>
        <mxCell id="q50GJkv8PMloG3w-waEr-35" style="edgeStyle=none;rounded=0;orthogonalLoop=1;jettySize=auto;html=1;strokeColor=default;" edge="1" parent="1" source="q50GJkv8PMloG3w-waEr-34" target="q50GJkv8PMloG3w-waEr-1">
          <mxGeometry relative="1" as="geometry" />
        </mxCell>
        <mxCell id="q50GJkv8PMloG3w-waEr-34" value="Beosztás" style="ellipse;whiteSpace=wrap;html=1;align=center;" vertex="1" parent="1">
          <mxGeometry x="880" y="335" width="100" height="40" as="geometry" />
        </mxCell>
        <mxCell id="q50GJkv8PMloG3w-waEr-43" style="edgeStyle=none;rounded=0;orthogonalLoop=1;jettySize=auto;html=1;entryX=1;entryY=0;entryDx=0;entryDy=0;strokeColor=default;" edge="1" parent="1" source="q50GJkv8PMloG3w-waEr-36" target="q50GJkv8PMloG3w-waEr-2">
          <mxGeometry relative="1" as="geometry" />
        </mxCell>
        <mxCell id="q50GJkv8PMloG3w-waEr-36" value="&lt;u&gt;WehicleID&lt;/u&gt;" style="ellipse;whiteSpace=wrap;html=1;align=center;" vertex="1" parent="1">
          <mxGeometry x="950" y="460" width="100" height="40" as="geometry" />
        </mxCell>
        <mxCell id="q50GJkv8PMloG3w-waEr-44" style="edgeStyle=none;rounded=0;orthogonalLoop=1;jettySize=auto;html=1;entryX=1;entryY=0;entryDx=0;entryDy=0;strokeColor=default;" edge="1" parent="1" source="q50GJkv8PMloG3w-waEr-37" target="q50GJkv8PMloG3w-waEr-2">
          <mxGeometry relative="1" as="geometry" />
        </mxCell>
        <mxCell id="q50GJkv8PMloG3w-waEr-37" value="Rendszám" style="ellipse;whiteSpace=wrap;html=1;align=center;" vertex="1" parent="1">
          <mxGeometry x="950" y="500" width="100" height="40" as="geometry" />
        </mxCell>
        <mxCell id="q50GJkv8PMloG3w-waEr-45" style="edgeStyle=none;rounded=0;orthogonalLoop=1;jettySize=auto;html=1;entryX=1;entryY=0.25;entryDx=0;entryDy=0;strokeColor=default;" edge="1" parent="1" source="q50GJkv8PMloG3w-waEr-38" target="q50GJkv8PMloG3w-waEr-2">
          <mxGeometry relative="1" as="geometry" />
        </mxCell>
        <mxCell id="q50GJkv8PMloG3w-waEr-38" value="Típus" style="ellipse;whiteSpace=wrap;html=1;align=center;" vertex="1" parent="1">
          <mxGeometry x="950" y="540" width="100" height="40" as="geometry" />
        </mxCell>
        <mxCell id="q50GJkv8PMloG3w-waEr-46" style="edgeStyle=none;rounded=0;orthogonalLoop=1;jettySize=auto;html=1;entryX=1;entryY=0.5;entryDx=0;entryDy=0;strokeColor=default;" edge="1" parent="1" source="q50GJkv8PMloG3w-waEr-39" target="q50GJkv8PMloG3w-waEr-2">
          <mxGeometry relative="1" as="geometry" />
        </mxCell>
        <mxCell id="q50GJkv8PMloG3w-waEr-39" value="Gyártmány" style="ellipse;whiteSpace=wrap;html=1;align=center;" vertex="1" parent="1">
          <mxGeometry x="950" y="580" width="100" height="40" as="geometry" />
        </mxCell>
        <mxCell id="q50GJkv8PMloG3w-waEr-47" style="edgeStyle=none;rounded=0;orthogonalLoop=1;jettySize=auto;html=1;entryX=1;entryY=0.75;entryDx=0;entryDy=0;strokeColor=default;" edge="1" parent="1" source="q50GJkv8PMloG3w-waEr-41" target="q50GJkv8PMloG3w-waEr-2">
          <mxGeometry relative="1" as="geometry" />
        </mxCell>
        <mxCell id="q50GJkv8PMloG3w-waEr-41" value="Futott Km becsült" style="ellipse;whiteSpace=wrap;html=1;align=center;" vertex="1" parent="1">
          <mxGeometry x="950" y="620" width="100" height="40" as="geometry" />
        </mxCell>
        <mxCell id="q50GJkv8PMloG3w-waEr-48" style="edgeStyle=none;rounded=0;orthogonalLoop=1;jettySize=auto;html=1;entryX=1;entryY=1;entryDx=0;entryDy=0;strokeColor=default;" edge="1" parent="1" source="q50GJkv8PMloG3w-waEr-42" target="q50GJkv8PMloG3w-waEr-2">
          <mxGeometry relative="1" as="geometry" />
        </mxCell>
        <mxCell id="q50GJkv8PMloG3w-waEr-42" value="Futott Km leolvasott" style="ellipse;whiteSpace=wrap;html=1;align=center;" vertex="1" parent="1">
          <mxGeometry x="950" y="670" width="100" height="40" as="geometry" />
        </mxCell>
        <mxCell id="q50GJkv8PMloG3w-waEr-49" value="Sofőr_gépkocsi_&lt;br&gt;histroy" style="whiteSpace=wrap;html=1;align=center;" vertex="1" parent="1">
          <mxGeometry x="1100" y="560" width="100" height="40" as="geometry" />
        </mxCell>
        <mxCell id="q50GJkv8PMloG3w-waEr-51" style="edgeStyle=none;rounded=0;orthogonalLoop=1;jettySize=auto;html=1;entryX=0.92;entryY=1.025;entryDx=0;entryDy=0;entryPerimeter=0;strokeColor=default;" edge="1" parent="1" source="q50GJkv8PMloG3w-waEr-50" target="q50GJkv8PMloG3w-waEr-2">
          <mxGeometry relative="1" as="geometry" />
        </mxCell>
        <mxCell id="q50GJkv8PMloG3w-waEr-50" value="&lt;i&gt;&lt;u&gt;FelhasználóID&lt;/u&gt;&lt;/i&gt;" style="ellipse;whiteSpace=wrap;html=1;align=center;" vertex="1" parent="1">
          <mxGeometry x="950" y="710" width="100" height="40" as="geometry" />
        </mxCell>
        <mxCell id="q50GJkv8PMloG3w-waEr-59" style="edgeStyle=none;rounded=0;orthogonalLoop=1;jettySize=auto;html=1;entryX=1;entryY=0.5;entryDx=0;entryDy=0;strokeColor=default;" edge="1" parent="1" source="q50GJkv8PMloG3w-waEr-52" target="q50GJkv8PMloG3w-waEr-3">
          <mxGeometry relative="1" as="geometry" />
        </mxCell>
        <mxCell id="q50GJkv8PMloG3w-waEr-52" value="Viszonylat" style="ellipse;whiteSpace=wrap;html=1;align=center;" vertex="1" parent="1">
          <mxGeometry x="520" y="320" width="100" height="40" as="geometry" />
        </mxCell>
        <mxCell id="q50GJkv8PMloG3w-waEr-58" style="edgeStyle=none;rounded=0;orthogonalLoop=1;jettySize=auto;html=1;entryX=1;entryY=0;entryDx=0;entryDy=0;strokeColor=default;" edge="1" parent="1" source="q50GJkv8PMloG3w-waEr-53" target="q50GJkv8PMloG3w-waEr-3">
          <mxGeometry relative="1" as="geometry" />
        </mxCell>
        <mxCell id="q50GJkv8PMloG3w-waEr-53" value="&lt;b&gt;&lt;u&gt;FuvarID&lt;/u&gt;&lt;/b&gt;" style="ellipse;whiteSpace=wrap;html=1;align=center;" vertex="1" parent="1">
          <mxGeometry x="520" y="200" width="100" height="40" as="geometry" />
        </mxCell>
        <mxCell id="q50GJkv8PMloG3w-waEr-56" style="edgeStyle=none;rounded=0;orthogonalLoop=1;jettySize=auto;html=1;strokeColor=default;" edge="1" parent="1" source="q50GJkv8PMloG3w-waEr-54" target="q50GJkv8PMloG3w-waEr-52">
          <mxGeometry relative="1" as="geometry" />
        </mxCell>
        <mxCell id="q50GJkv8PMloG3w-waEr-54" value="Felrakó" style="ellipse;whiteSpace=wrap;html=1;align=center;" vertex="1" parent="1">
          <mxGeometry x="640" y="295" width="100" height="40" as="geometry" />
        </mxCell>
        <mxCell id="q50GJkv8PMloG3w-waEr-57" style="edgeStyle=none;rounded=0;orthogonalLoop=1;jettySize=auto;html=1;strokeColor=default;" edge="1" parent="1" source="q50GJkv8PMloG3w-waEr-55" target="q50GJkv8PMloG3w-waEr-52">
          <mxGeometry relative="1" as="geometry" />
        </mxCell>
        <mxCell id="q50GJkv8PMloG3w-waEr-55" value="Lerakó" style="ellipse;whiteSpace=wrap;html=1;align=center;" vertex="1" parent="1">
          <mxGeometry x="640" y="350" width="100" height="40" as="geometry" />
        </mxCell>
        <mxCell id="q50GJkv8PMloG3w-waEr-61" style="edgeStyle=none;rounded=0;orthogonalLoop=1;jettySize=auto;html=1;entryX=1;entryY=0.75;entryDx=0;entryDy=0;strokeColor=default;" edge="1" parent="1" source="q50GJkv8PMloG3w-waEr-60" target="q50GJkv8PMloG3w-waEr-3">
          <mxGeometry relative="1" as="geometry" />
        </mxCell>
        <mxCell id="q50GJkv8PMloG3w-waEr-60" value="&lt;u&gt;&lt;i&gt;MegbízóPartnerID&lt;/i&gt;&lt;/u&gt;" style="ellipse;whiteSpace=wrap;html=1;align=center;" vertex="1" parent="1">
          <mxGeometry x="520" y="370" width="100" height="40" as="geometry" />
        </mxCell>
        <mxCell id="q50GJkv8PMloG3w-waEr-63" style="edgeStyle=none;rounded=0;orthogonalLoop=1;jettySize=auto;html=1;entryX=1;entryY=1;entryDx=0;entryDy=0;strokeColor=default;" edge="1" parent="1" source="q50GJkv8PMloG3w-waEr-62" target="q50GJkv8PMloG3w-waEr-3">
          <mxGeometry relative="1" as="geometry" />
        </mxCell>
        <mxCell id="q50GJkv8PMloG3w-waEr-62" value="&lt;u&gt;&lt;i&gt;WehicleID&lt;/i&gt;&lt;/u&gt;" style="ellipse;whiteSpace=wrap;html=1;align=center;" vertex="1" parent="1">
          <mxGeometry x="520" y="410" width="100" height="40" as="geometry" />
        </mxCell>
        <mxCell id="q50GJkv8PMloG3w-waEr-64" value="&lt;u&gt;&lt;i&gt;AlvállalkozóPartnerID&lt;/i&gt;&lt;/u&gt;" style="ellipse;whiteSpace=wrap;html=1;align=center;" vertex="1" parent="1">
          <mxGeometry x="520" y="450" width="100" height="40" as="geometry" />
        </mxCell>
        <mxCell id="q50GJkv8PMloG3w-waEr-68" style="edgeStyle=none;rounded=0;orthogonalLoop=1;jettySize=auto;html=1;entryX=1;entryY=0;entryDx=0;entryDy=0;strokeColor=default;" edge="1" parent="1" source="q50GJkv8PMloG3w-waEr-65" target="q50GJkv8PMloG3w-waEr-67">
          <mxGeometry relative="1" as="geometry" />
        </mxCell>
        <mxCell id="q50GJkv8PMloG3w-waEr-65" value="Fuvar_kezdete" style="ellipse;whiteSpace=wrap;html=1;align=center;" vertex="1" parent="1">
          <mxGeometry x="660" y="470" width="100" height="40" as="geometry" />
        </mxCell>
        <mxCell id="q50GJkv8PMloG3w-waEr-69" style="edgeStyle=none;rounded=0;orthogonalLoop=1;jettySize=auto;html=1;entryX=1;entryY=0.5;entryDx=0;entryDy=0;strokeColor=default;" edge="1" parent="1" source="q50GJkv8PMloG3w-waEr-66" target="q50GJkv8PMloG3w-waEr-67">
          <mxGeometry relative="1" as="geometry" />
        </mxCell>
        <mxCell id="q50GJkv8PMloG3w-waEr-66" value="Fuvar_vége" style="ellipse;whiteSpace=wrap;html=1;align=center;" vertex="1" parent="1">
          <mxGeometry x="660" y="510" width="100" height="40" as="geometry" />
        </mxCell>
        <mxCell id="q50GJkv8PMloG3w-waEr-67" value="FuvarIdőtartam" style="ellipse;whiteSpace=wrap;html=1;align=center;" vertex="1" parent="1">
          <mxGeometry x="520" y="490" width="100" height="40" as="geometry" />
        </mxCell>
        <mxCell id="q50GJkv8PMloG3w-waEr-70" value="Fuvardíj" style="ellipse;whiteSpace=wrap;html=1;align=center;" vertex="1" parent="1">
          <mxGeometry x="520" y="530" width="100" height="40" as="geometry" />
        </mxCell>
        <mxCell id="q50GJkv8PMloG3w-waEr-71" value="TovábbítottFuvardíj" style="ellipse;whiteSpace=wrap;html=1;align=center;" vertex="1" parent="1">
          <mxGeometry x="520" y="570" width="100" height="40" as="geometry" />
        </mxCell>
        <mxCell id="q50GJkv8PMloG3w-waEr-73" style="edgeStyle=none;rounded=0;orthogonalLoop=1;jettySize=auto;html=1;entryX=1;entryY=0.5;entryDx=0;entryDy=0;strokeColor=default;" edge="1" parent="1" source="q50GJkv8PMloG3w-waEr-72" target="q50GJkv8PMloG3w-waEr-70">
          <mxGeometry relative="1" as="geometry" />
        </mxCell>
        <mxCell id="q50GJkv8PMloG3w-waEr-72" value="Áfa" style="ellipse;shape=doubleEllipse;margin=3;whiteSpace=wrap;html=1;align=center;" vertex="1" parent="1">
          <mxGeometry x="660" y="550" width="100" height="40" as="geometry" />
        </mxCell>
        <mxCell id="q50GJkv8PMloG3w-waEr-75" style="edgeStyle=none;rounded=0;orthogonalLoop=1;jettySize=auto;html=1;entryX=1;entryY=0.25;entryDx=0;entryDy=0;strokeColor=default;" edge="1" parent="1" source="q50GJkv8PMloG3w-waEr-74" target="q50GJkv8PMloG3w-waEr-3">
          <mxGeometry relative="1" as="geometry" />
        </mxCell>
        <mxCell id="q50GJkv8PMloG3w-waEr-74" value="Típus" style="ellipse;whiteSpace=wrap;html=1;align=center;" vertex="1" parent="1">
          <mxGeometry x="520" y="240" width="100" height="40" as="geometry" />
        </mxCell>
      </root>
    </mxGraphModel>
  </diagram>
</mxfile>
